<svg width="40" height="40" viewBox="0 0 40 40" fill="none" xmlns="http://www.w3.org/2000/svg">
<path d="M5.10277 12.0744C5.18072 10.3711 5.44742 9.27253 5.80811 8.34004L5.81296 8.32716C6.17037 7.37826 6.73029 6.51866 7.45372 5.80816L7.46387 5.79819L7.47384 5.78804C8.18492 5.06368 9.04484 4.50431 9.99291 4.14784L10.0093 4.14159C10.9396 3.77978 12.036 3.51406 13.7408 3.43613M5.10277 12.0744C5.02082 13.8943 4.99994 14.4585 4.99994 19.1772C4.99994 23.8968 5.01967 24.4597 5.10272 26.28M5.10277 12.0744V12.5335M13.7408 3.43613C15.5611 3.35308 16.1251 3.33334 20.8437 3.33334C25.5623 3.33334 26.126 3.35421 27.9458 3.43614M13.7408 3.43613H14.201M5.10272 26.28C5.18066 27.9848 5.44637 29.0812 5.80819 30.0115L5.81444 30.028M5.10272 26.28L5.13064 26.427M5.10272 26.28V25.8198M5.10277 12.5335C5.10914 12.3876 5.11601 12.2356 5.12336 12.0739C5.20877 10.2102 5.52559 9.12134 5.82757 8.34901C6.21841 7.34038 6.71349 6.57928 7.46986 5.81978C8.18879 5.08228 9.06277 4.51396 10.0285 4.15598C10.7974 3.85774 11.8834 3.54188 13.74 3.45678C13.9022 3.44941 14.0547 3.44253 14.201 3.43613M5.10277 12.5335C5.03532 14.0757 5.02082 14.9265 5.02082 19.1772C5.02082 23.4263 5.03532 24.2783 5.10272 25.8198M5.10277 12.5335L5.10272 25.8198M5.81444 30.028C6.17091 30.976 6.73027 31.8358 7.45464 32.547L7.46477 32.557L7.47472 32.567C8.18526 33.2905 9.04489 33.8505 9.99379 34.2078L10.008 34.2132C10.9392 34.5743 12.0361 34.8402 13.7408 34.9182M5.81444 30.028L5.79307 29.9153M5.79307 29.9153L5.13064 26.427M5.79307 29.9153C5.51172 29.1722 5.22202 28.135 5.13064 26.427M5.79307 29.9153C5.80294 29.9415 5.81279 29.9672 5.82264 29.9925C6.17942 30.9543 6.74474 31.8253 7.47797 32.5427C8.19512 33.2758 9.06572 33.841 10.0273 34.1978C10.7989 34.4983 11.8862 34.8125 13.7405 34.8975C15.6118 34.9827 16.19 35 20.8437 35C25.4975 35 26.0762 34.9827 27.9475 34.8975C29.804 34.8123 30.89 34.4965 31.659 34.1983C32.621 33.8417 33.4922 33.2762 34.2095 32.5427C34.9425 31.8255 35.5077 30.955 35.8645 29.9935C36.165 29.2218 36.4792 28.1347 36.564 26.2803C36.6492 24.409 36.6667 23.8297 36.6667 19.1772C36.6667 14.5245 36.6492 13.9447 36.564 12.0734C36.4785 10.2071 36.1598 9.11948 35.8602 8.34988C35.4685 7.33871 34.9718 6.57396 34.2083 5.81046C33.4463 5.04999 32.6837 4.55299 31.6717 4.16091C30.8993 3.85896 29.811 3.54219 27.9475 3.45678C27.7853 3.44941 27.633 3.44254 27.4868 3.43614M5.13064 26.427C5.12806 26.3788 5.12564 26.3302 5.12337 26.2808C5.11601 26.1187 5.10912 25.9662 5.10272 25.8198M27.4868 3.43614H27.9458M27.4868 3.43614L14.201 3.43613M27.4868 3.43614C25.9452 3.36874 25.0933 3.35423 20.8437 3.35423C16.5944 3.35423 15.7425 3.36873 14.201 3.43613M27.9458 3.43614C29.6495 3.51408 30.7482 3.78074 31.6808 4.14146L31.6937 4.14636C32.6425 4.50378 33.5022 5.06369 34.2127 5.78713L34.2225 5.79718L34.2327 5.80704C34.9562 6.51759 35.516 7.37744 35.8732 8.32661L35.8792 8.34266C36.241 9.27303 36.5068 10.3694 36.5847 12.0742M36.5847 26.28C36.5068 27.9847 36.241 29.0817 35.8798 30.0128L35.8745 30.027C35.517 30.976 34.9572 31.8355 34.2337 32.546L34.2235 32.556L34.2137 32.5662C33.5025 33.2905 32.6427 33.8498 31.6945 34.2063L31.6782 34.2127C30.7478 34.5745 29.6513 34.8402 27.9467 34.9182M18.0258 25.9802C18.9192 26.3502 19.8767 26.5407 20.8437 26.5407C22.7967 26.5407 24.6697 25.7648 26.0507 24.384C27.4315 23.003 28.2073 21.13 28.2073 19.1772C28.2073 17.2242 27.4315 15.3512 26.0507 13.9703C24.6697 12.5893 22.7967 11.8135 20.8437 11.8135C19.8767 11.8135 18.9192 12.004 18.0258 12.374C17.1323 12.7441 16.3206 13.2865 15.6369 13.9703C14.9531 14.654 14.4107 15.4658 14.0406 16.3592C13.6706 17.2525 13.4801 18.2102 13.4801 19.1772C13.4801 20.1442 13.6706 21.1017 14.0406 21.995C14.4107 22.8885 14.9531 23.7002 15.6369 24.384C16.3206 25.0677 17.1323 25.6102 18.0258 25.9802ZM15.6205 13.9539C17.0058 12.5686 18.8847 11.7903 20.8437 11.7903C22.8028 11.7903 24.6817 12.5686 26.067 13.9539C27.4523 15.3392 28.2305 17.218 28.2305 19.1772C28.2305 21.1362 27.4523 23.015 26.067 24.4003C24.6817 25.7857 22.8028 26.5638 20.8437 26.5638C18.8847 26.5638 17.0058 25.7857 15.6205 24.4003C14.2352 23.015 13.4569 21.1362 13.4569 19.1772C13.4569 17.218 14.2352 15.3392 15.6205 13.9539ZM32.39 10.0705C32.39 10.6312 32.1672 11.169 31.7708 11.5655C31.3743 11.962 30.8365 12.1847 30.2758 12.1847C29.715 12.1847 29.1773 11.962 28.7808 11.5655C28.3843 11.169 28.1615 10.6312 28.1615 10.0705C28.1615 9.50976 28.3843 8.97199 28.7808 8.57551C29.1773 8.17901 29.715 7.95626 30.2758 7.95626C30.8365 7.95626 31.3743 8.17901 31.7708 8.57551C32.1672 8.97199 32.39 9.50976 32.39 10.0705Z" stroke="#5A5858" stroke-linejoin="round"/>
</svg>
