<svg width="40" height="40" viewBox="0 0 40 40" fill="none" xmlns="http://www.w3.org/2000/svg">
<path d="M28.0361 8.55734C26.8143 7.15658 26.0798 5.33009 26.0798 3.33334H24.5488M28.0361 8.55734C29.1496 9.83439 30.6573 10.7631 32.3741 11.1268C32.9076 11.2429 33.4643 11.3049 34.0443 11.3049V17.0318C31.075 17.0318 28.322 16.08 26.0795 14.4702V26.1178C26.0795 31.9378 21.347 36.6667 15.5397 36.6667C12.5007 36.6667 9.75554 35.3663 7.83008 33.3C6.07474 31.4117 4.99988 28.8885 4.99988 26.1178C4.99988 20.383 9.59318 15.7085 15.2845 15.5847M28.0361 8.55734C28.0065 8.53794 27.9768 8.51836 27.9473 8.49858M11.6425 28.9195C11.0703 28.1302 10.73 27.1628 10.73 26.1102C10.73 23.4557 12.8875 21.2963 15.5399 21.2963C16.0348 21.2963 16.5141 21.3813 16.9626 21.5207V15.6699C16.4987 15.6079 16.027 15.5692 15.5399 15.5692C15.4548 15.5692 14.7696 15.6147 14.6845 15.6147M24.5406 3.33334H20.3495L20.3418 26.2958C20.249 28.8653 18.1301 30.9318 15.5397 30.9318C13.9313 30.9318 12.5162 30.1347 11.6346 28.9273" stroke="#5A5858" stroke-linejoin="round"/>
</svg>
